I Spit on Your Grave (2010) Alternatieve titel: Day of the Woman 

A writer who is brutalized during her cabin retreat seeks revenge on her attackers, who left her for dead...

Subs: Dutch, English (srt).


Een schrijfster trekt zich voor haar nieuwste boek terug in een verlaten huisje in de bossen. Hier wordt ze op brute wijze overvallen en verkracht en voor dood achtergelaten. Weer bijgekomen besluit ze om wraak te nemen op de personen die haar hebben aangevallen. En voor deze wraak gaat ze niets uit de weg..

Ondertitels: Engels, Nederlands (srt).


General
Complete name                    : I Spit On Your Grave-AC3-XviD-DVDRip 2010 TBS\I Spit On Your Grave-AC3-XviD-DVDRip 2010 TBS.avi
Format                           : AVI
Format/Info                      : Audio Video Interleave
File size                        : 1.46 GiB
Duration                         : 1h 48mn
Overall bit rate                 : 1 932 Kbps
Writing application              : VirtualDubMod 1.5.4.1 (build 2178/release)
Writing library                  : VirtualDubMod build 2178/release
Source                           : I.Spit.On.Your.Grave.UNRATED.2010.LiMiTED.DVDR-TWiZTED 

Video
ID                               : 0
Format                           : MPEG-4 Visual
Format profile                   : Simple@L3
Format settings, BVOP            : No
Format settings, QPel            : No
Format settings, GMC             : No warppoints
Format settings, Matrix          : Default (H.263)
Codec ID                         : XVID
Codec ID/Hint                    : XviD
Duration                         : 1h 48mn
Bit rate                         : 1 475 Kbps
Width                            : 720 pixels
Height                           : 304 pixels
Display aspect ratio             : 2.35:1
Frame rate                       : 23.976 fps
Resolution                       : 8 bits
Colorimetry                      : 4:2:0
Scan type                        : Progressive
Bits/(Pixel*Frame)               : 0.281
Stream size                      : 1.12 GiB (76%)
Writing library                  : XviD 1.1.2 (UTC 2006-11-01)

Audio
ID                               : 1
Format                           : AC-3
Format/Info                      : Audio Coding 3
Codec ID                         : 2000
Duration                         : 1h 48mn
Bit rate mode                    : Constant
Bit rate                         : 448 Kbps
Channel(s)                       : 6 channels
Channel positions                : Front: L C R, Surround: L R, LFE
Sampling rate                    : 48.0 KHz
Stream size                      : 347 MiB (23%)
Alignment                        : Split accross interleaves
Interleave, duration             : 42 ms (1.00 video frame)
Interleave, preload duration     : 500 ms

Thanks to FGTR for the source and Dutch subs.

Blackbeard  TBS.